<svg xmlns="http://www.w3.org/2000/svg" width="1600" height="900" viewBox="0 0 1600 900">
  <defs>
    <linearGradient id="grass" x1="0" x2="0" y1="0" y2="1">
      <stop offset="0" stop-color="#0b3b2b"/>
      <stop offset="0.6" stop-color="#07281e"/>
      <stop offset="1" stop-color="#061f17"/>
    </linearGradient>
    <pattern id="mow" width="140" height="140" patternUnits="userSpaceOnUse" patternTransform="rotate(12)">
      <rect width="70" height="140" fill="rgba(255,255,255,0.035)"/>
      <rect x="70" width="70" height="140" fill="rgba(0,0,0,0.06)"/>
    </pattern>
    <filter id="v" x="-10%" y="-10%" width="120%" height="120%">
      <feGaussianBlur stdDeviation="18" result="b"/>
      <feColorMatrix in="b" type="matrix"
        values="1 0 0 0 0
                0 1 0 0 0
                0 0 1 0 0
                0 0 0 0.7 0" result="c"/>
      <feMerge>
        <feMergeNode in="c"/>
        <feMergeNode in="SourceGraphic"/>
      </feMerge>
    </filter>
  </defs>

  <!-- Grass -->
  <rect width="1600" height="900" fill="url(#grass)"/>
  <rect width="1600" height="900" fill="url(#mow)" opacity="0.9"/>

  <!-- Pitch lines -->
  <g fill="none" stroke="rgba(255,255,255,0.38)" stroke-width="6" filter="url(#v)">
    <rect x="110" y="70" width="1380" height="760" rx="8"/>
    <line x1="800" y1="70" x2="800" y2="830"/>
    <circle cx="800" cy="450" r="92"/>
    <circle cx="800" cy="450" r="6" fill="rgba(255,255,255,0.5)"/>

    <!-- Left box -->
    <rect x="110" y="250" width="190" height="400"/>
    <rect x="110" y="330" width="80" height="240"/>
    <circle cx="260" cy="450" r="6" fill="rgba(255,255,255,0.5)"/>
    <path d="M300 360a110 110 0 0 1 0 180"/>

    <!-- Right box -->
    <rect x="1300" y="250" width="190" height="400"/>
    <rect x="1410" y="330" width="80" height="240"/>
    <circle cx="1340" cy="450" r="6" fill="rgba(255,255,255,0.5)"/>
    <path d="M1300 360a110 110 0 0 0 0 180"/>
  </g>
</svg>

