<svg xmlns="http://www.w3.org/2000/svg" width="900" height="1400" viewBox="0 0 900 1400">
  <defs>
    <linearGradient id="g3" x1="1" x2="0" y1="0" y2="1">
      <stop offset="0" stop-color="#22c55e" stop-opacity="0.55"/>
      <stop offset="0.6" stop-color="#34d399" stop-opacity="0.18"/>
      <stop offset="1" stop-color="#0ea5e9" stop-opacity="0.10"/>
    </linearGradient>
    <filter id="edge" x="-30%" y="-30%" width="160%" height="160%">
      <feGaussianBlur stdDeviation="18" result="b"/>
      <feMerge>
        <feMergeNode in="b"/>
        <feMergeNode in="SourceGraphic"/>
      </feMerge>
    </filter>
  </defs>
  <path filter="url(#edge)" fill="url(#g3)" d="M420 180c60 0 105 45 105 105s-45 105-105 105-105-45-105-105 45-105 105-105z"/>
  <path filter="url(#edge)" fill="url(#g3)" d="M240 560c45-70 110-105 190-105s145 35 190 105c55 85 90 235 90 330 0 110-42 185-110 230-58 38-115 48-170 48s-112-10-170-48c-68-45-110-120-110-230 0-95 35-245 90-330z"/>
  <path filter="url(#edge)" fill="url(#g3)" d="M280 1090c55 35 105 48 150 48s95-13 150-48c20 95 36 190 36 255 0 40-22 55-62 55H306c-40 0-62-15-62-55 0-65 16-160 36-255z"/>
</svg>

